<?xml version="1.0" encoding="utf-8"?>
<!-- Generator: Adobe Illustrator 24.1.2, SVG Export Plug-In . SVG Version: 6.00 Build 0)  -->
<svg version="1.1" xmlns="http://www.w3.org/2000/svg" xmlns:xlink="http://www.w3.org/1999/xlink" x="0px" y="0px"
	 viewBox="0 0 1497.1 1497.1" style="enable-background:new 0 0 1497.1 1497.1;" xml:space="preserve">
<style type="text/css">
	.st0{display:none;}
	.st1{fill:none;stroke:#FFFFFF;stroke-width:21;stroke-miterlimit:10;}
</style>
<g id="katman_1" class="st0">
	
		<image style="display:inline;overflow:visible;" width="64" height="64" xlink:href="../Downloads/icons8-web-analytics-64.png"  transform="matrix(14.2726 0 0 14.2726 292 249)">
	</image>
</g>
<g id="katman_2">
	<path class="st1" d="M457.5,387.5h577c24.3,0,44,19.7,44,44v548c0,24.3-19.7,44-44,44h-577c-24.3,0-44-19.7-44-44v-548
		C413.5,407.2,433.2,387.5,457.5,387.5z"/>
	<line class="st1" x1="413.5" y1="508" x2="1078.5" y2="508"/>
	<line class="st1" x1="697.9" y1="387.5" x2="764.6" y2="508"/>
	<line class="st1" x1="660.1" y1="508" x2="597.5" y2="387.5"/>
	<line class="st1" x1="479.5" y1="574.5" x2="633.5" y2="574.5"/>
	<line class="st1" x1="479.5" y1="631.5" x2="576.5" y2="631.5"/>
	<circle class="st1" cx="538" cy="824" r="50.5"/>
	<circle class="st1" cx="697.5" cy="706.5" r="46"/>
	<circle class="st1" cx="848" cy="847" r="52.5"/>
	<circle class="st1" cx="963.5" cy="653.5" r="53"/>
	<line class="st1" x1="576.5" y1="791.3" x2="657.2" y2="728.8"/>
	<line class="st1" x1="737.8" y1="728.8" x2="814.9" y2="806.3"/>
	<line class="st1" x1="868.7" y1="798.7" x2="934.7" y2="698"/>
	<line class="st1" x1="413.5" y1="956.5" x2="1075.5" y2="956.5"/>
</g>
</svg>
