<?xml version="1.0" encoding="utf-8"?>
<!-- Generator: Adobe Illustrator 24.1.2, SVG Export Plug-In . SVG Version: 6.00 Build 0)  -->
<svg version="1.1" xmlns="http://www.w3.org/2000/svg" xmlns:xlink="http://www.w3.org/1999/xlink" x="0px" y="0px"
	 viewBox="0 0 1497.1 1497.1" style="enable-background:new 0 0 1497.1 1497.1;" xml:space="preserve">
<style type="text/css">
	.st0{display:none;}
	.st1{fill:none;stroke:#FFFFFF;stroke-width:21;stroke-miterlimit:10;}
	.st2{stroke:#FFFFFF;stroke-width:21;stroke-miterlimit:10;}
</style>
<g id="katman_1" class="st0">
	
		<image style="display:inline;overflow:visible;" width="64" height="64" xlink:href="../Downloads/icons8-witch-broom-64.png"  transform="matrix(17.7188 0 0 17.7188 211 140)">
	</image>
</g>
<g id="katman_2">
	<path class="st1" d="M400.5,1153.5"/>
	<path class="st1" d="M748.5,963v160c0,16.8,13.7,30.5,30.5,30.5l0,0c16.8,0,30.5-13.7,30.5-30.5V881.4c0-8.8-3.8-17.3-10.5-23.1
		l-92.9-80.4c-5.5-4.8-12.6-7.4-20-7.4H499.5"/>
	<path class="st1" d="M739.9,1152.2"/>
	<path class="st1" d="M449.9,962v160.7c0,16.8-13.7,30.5-30.5,30.5h0c-16.8,0-30.5-13.7-30.5-30.5V881.1c0-8.8,3.8-17.3,10.5-23.1
		l92.9-80.4c5.5-4.8,12.6-7.4,20-7.4h186.6"/>
	<path class="st1" d="M449.9,1113.5l-0.1,5.7c-0.2,18.9,15.1,34.3,34,34.3h230.7c18.8,0,34-15.2,34-34v-6"/>
	<line class="st1" x1="527.5" y1="1034" x2="527.5" y2="1152.5"/>
	<line class="st1" x1="598.5" y1="1010.5" x2="599" y2="1153.5"/>
	<line class="st1" x1="671.5" y1="1035" x2="671.5" y2="1152.5"/>
	<path class="st1" d="M510,666.5h174.5c15.2,0,26.9,13.6,24.6,28.6l-10.6,68.4h-199l-13.8-67.1C482.5,680.9,494.3,666.5,510,666.5z"
		/>
	<path class="st1" d="M543.5,666.5V314c0-30.7,24.8-55.5,55.5-55.5h0c30.7,0,55.5,24.8,55.5,55.5v352.5"/>
	<line class="st2" x1="884.5" y1="891.5" x2="1041.5" y2="891.5"/>
	<line class="st2" x1="884.5" y1="962.5" x2="1097.5" y2="962.5"/>
	<line class="st2" x1="884.5" y1="1033.5" x2="1130.5" y2="1033.5"/>
	<line class="st2" x1="884.5" y1="1104.5" x2="1183.5" y2="1104.5"/>
</g>
</svg>
