<?xml version="1.0" encoding="utf-8"?>
<!-- Generator: Adobe Illustrator 24.1.2, SVG Export Plug-In . SVG Version: 6.00 Build 0)  -->
<svg version="1.1" xmlns="http://www.w3.org/2000/svg" xmlns:xlink="http://www.w3.org/1999/xlink" x="0px" y="0px"
	 viewBox="0 0 1497.1 1497.1" style="enable-background:new 0 0 1497.1 1497.1;" xml:space="preserve">
<style type="text/css">
	.st0{display:none;}
	.st1{fill:none;stroke:#FFFFFF;stroke-width:21;stroke-miterlimit:10;}
	.st2{fill:#FFFFFF;stroke:#FFFFFF;stroke-miterlimit:10;}
</style>
<g id="katman_3" class="st0">
	
		<image style="display:inline;overflow:visible;" width="64" height="64" xlink:href="../Downloads/icons8-analyze-64.png"  transform="matrix(14.8143 0 0 14.8143 316 208)">
	</image>
</g>
<g id="katman_2">
	<path class="st1" d="M1002,1009.5H853.5c-17.7,0-32,14.3-32,32v6c0,17.7,14.3,32,32,32h116.3c17.9,0,32.4-14.7,32-32.7l-10.1-495.5
		c-0.2-7.6-3-15-8.1-20.7L865.1,398.2c-6.1-6.8-14.8-10.7-24-10.7c-117.9,0.6-235.8,1.2-353.8,1.8c-17.6,0.1-31.8,14.4-31.8,32
		v626.2c0,17.7,14.3,32,32,32h116c17.7,0,32-14.3,32-32l0,0c0-17.7-14.3-32-32-32l-145.5,1"/>
	<path class="st1" d="M847.5,389v116.5c0,17.7,14.3,32,32,32H985"/>
	<circle class="st1" cx="724" cy="817" r="143.5"/>
	<path class="st1" d="M696.2,1007.5H760c10.8,0,19.5,8.7,19.5,19.5v81.4c0,0.7-0.3,1.5-0.7,2l-21.3,26.9c-0.6,0.8-1.6,1.2-2.6,1.2
		h-48.6c-3.1,0-6-1.3-8-3.5l-20.9-22.5c-0.6-0.6-0.9-1.4-0.9-2.2v-83C676.5,1016.3,685.3,1007.5,696.2,1007.5z"/>
	<path class="st2" d="M564.1,467.5h134.7c8.6,0,15.6,7,15.6,15.6v83.7c0,8.6-7,15.6-15.6,15.6H564.1c-8.6,0-15.6-7-15.6-15.6v-83.7
		C548.5,474.5,555.5,467.5,564.1,467.5z"/>
	<path class="st1" d="M748.5,387.6"/>
	<path class="st1" d="M917,699.5"/>
	<line class="st1" x1="809.2" y1="699.5" x2="901.5" y2="699.5"/>
	<line class="st1" x1="547.5" y1="699.5" x2="640.6" y2="699.5"/>
	<line class="st1" x1="867.5" y1="772.5" x2="901.5" y2="772.5"/>
	<line class="st1" x1="547.5" y1="772.5" x2="586.5" y2="772.5"/>
	<line class="st1" x1="865.6" y1="853.5" x2="901.5" y2="853.5"/>
	<path class="st1" d="M547.5,853.5c11.3,0,22.6,0,33.9,0"/>
</g>
</svg>
